<?xml version="1.0" standalone="no"?>
<!DOCTYPE svg PUBLIC "-//W3C//DTD SVG 20010904//EN"
 "http://www.w3.org/TR/2001/REC-SVG-20010904/DTD/svg10.dtd">
<svg version="1.0" xmlns="http://www.w3.org/2000/svg"
 width="1080.000000pt" height="1080.000000pt" viewBox="0 0 1080.000000 1080.000000"
 preserveAspectRatio="xMidYMid meet">
<metadata>
Created by potrace 1.16, written by Peter Selinger 2001-2019
</metadata>
<g transform="translate(0.000000,1080.000000) scale(0.100000,-0.100000)"
fill="#000000" stroke="none">
<path d="M3980 9508 c-151 -44 -276 -81 -278 -82 -2 -3 227 -818 232 -823 2
-3 108 27 113 31 1 1 -20 76 -46 168 l-48 166 201 57 c111 32 204 59 207 61
12 7 -14 94 -28 94 -7 0 -102 -25 -209 -56 -108 -31 -197 -54 -199 -52 -5 5
-83 283 -80 286 1 1 105 32 231 68 126 36 230 67 231 68 8 7 -27 91 -38 93 -8
0 -138 -35 -289 -79z"/>
<path d="M4837 9448 c-57 -12 -113 -44 -144 -82 -15 -19 -31 -32 -35 -30 -4 3
-8 23 -8 45 l0 39 -42 0 c-76 0 -74 15 -39 -301 17 -156 34 -299 37 -318 l5
-33 50 4 c27 3 52 8 55 11 3 3 -4 88 -15 188 -21 190 -19 235 13 284 26 39 81
75 127 83 38 6 44 11 47 34 2 14 -1 39 -5 55 -8 28 -10 29 -46 21z"/>
<path d="M5230 9441 c-86 -28 -160 -91 -201 -171 -17 -33 -24 -67 -27 -130 -7
-149 50 -250 176 -312 61 -30 74 -33 162 -33 85 0 101 3 153 29 112 57 168
147 175 281 5 99 -21 177 -80 241 -63 69 -134 98 -242 101 -50 1 -102 -1 -116
-6z m232 -127 c64 -45 92 -103 92 -189 -1 -148 -103 -246 -240 -232 -104 11
-173 73 -195 176 -22 106 25 216 112 260 36 18 57 21 116 19 61 -3 78 -8 115
-34z"/>
<path d="M5817 9077 c-47 -172 -84 -313 -82 -315 2 -2 26 -9 54 -17 l51 -13
19 66 c11 37 34 120 52 185 35 128 56 169 108 204 74 50 185 38 254 -26 62
-58 62 -100 -2 -328 -28 -100 -51 -189 -51 -196 0 -11 98 -44 105 -35 1 2 26
89 56 193 66 235 71 312 26 388 -48 81 -144 129 -262 130 -53 0 -80 -5 -112
-22 -47 -23 -50 -20 -34 36 9 32 9 33 -32 43 -23 6 -47 13 -53 15 -7 2 -44
-117 -97 -308z"/>
<path d="M6785 9180 c-16 -33 -32 -60 -36 -60 -4 0 -26 9 -50 20 l-44 19 -17
-32 c-25 -47 -22 -56 27 -77 25 -11 45 -21 45 -24 0 -2 -38 -85 -84 -183 -46
-98 -87 -195 -91 -215 -19 -99 75 -202 200 -221 52 -8 62 -1 66 49 l4 42 -48
5 c-35 3 -56 12 -78 33 -27 25 -30 34 -26 69 5 41 154 365 168 365 4 0 43 -16
85 -35 42 -19 78 -34 79 -33 8 9 35 69 35 76 0 5 -36 26 -80 46 -44 21 -80 40
-80 42 0 3 14 31 30 64 l30 60 -50 25 c-27 14 -51 25 -53 25 -2 0 -16 -27 -32
-60z"/>
<path d="M7012 8629 c-13 -22 -22 -43 -20 -45 3 -2 64 -42 136 -89 l132 -84
25 37 c14 20 25 40 25 43 0 6 -264 179 -272 179 -2 0 -13 -19 -26 -41z"/>
<path d="M2641 8611 c-40 -50 -61 -101 -61 -148 l-1 -38 -34 39 -34 38 -41
-32 c-22 -17 -40 -34 -40 -37 0 -12 404 -493 414 -493 6 1 27 15 48 33 l36 33
-115 139 c-64 77 -124 158 -134 180 -36 77 -20 153 44 214 l36 34 -30 39 c-17
21 -37 38 -44 38 -7 0 -27 -18 -44 -39z"/>
<path d="M3385 8505 c-60 -59 4 -164 82 -134 36 13 52 37 53 77 0 43 -38 82
-80 82 -19 0 -40 -9 -55 -25z"/>
<path d="M7540 8491 c-89 -28 -174 -102 -218 -191 -23 -46 -27 -68 -27 -135 1
-101 23 -153 100 -234 70 -73 149 -114 225 -115 l55 -1 3 48 3 47 -38 0 c-116
1 -243 128 -243 245 0 40 25 125 37 125 2 0 93 -79 201 -177 l196 -176 32 37
c75 87 103 213 69 315 -23 71 -103 156 -180 193 -48 22 -73 28 -125 27 -36 0
-76 -4 -90 -8z m197 -121 c66 -38 104 -93 111 -160 5 -54 -20 -140 -41 -140
-16 1 -302 260 -302 274 0 6 20 21 45 34 63 32 122 29 187 -8z"/>
<path d="M2163 8146 c-152 -73 -231 -257 -173 -408 28 -76 104 -159 178 -195
48 -24 69 -28 137 -27 69 0 88 4 140 31 113 58 200 180 212 298 l6 55 -52 0
-51 0 0 -35 c0 -105 -107 -224 -217 -241 -49 -7 -132 12 -140 32 -2 7 72 100
166 208 l170 195 -35 30 c-63 56 -111 74 -204 78 -74 4 -91 1 -137 -21z m197
-92 c22 -9 40 -19 40 -23 0 -14 -260 -306 -272 -306 -7 0 -23 20 -35 45 -85
168 90 355 267 284z"/>
<path d="M8182 8010 c-13 -11 -127 -95 -253 -187 -126 -91 -229 -169 -229
-173 0 -4 14 -26 30 -49 l31 -42 32 23 c18 12 82 59 144 104 144 107 166 118
234 118 44 1 64 -4 97 -27 74 -48 116 -140 98 -211 -11 -43 -59 -88 -220 -206
l-155 -113 30 -43 c16 -24 34 -44 38 -44 21 0 349 251 378 289 77 100 65 225
-32 338 -34 40 -115 87 -169 98 l-29 6 34 25 c19 14 34 28 34 32 0 14 -50 82
-60 82 -5 -1 -21 -9 -33 -20z"/>
<path d="M1803 7570 c-137 -28 -253 -163 -257 -297 0 -32 3 -73 7 -91 l9 -33
-41 20 c-22 12 -42 21 -45 21 -2 0 -16 -20 -30 -45 l-25 -45 22 -14 c42 -26
746 -416 751 -416 3 0 17 21 32 46 33 55 45 43 -130 139 -121 67 -144 85 -110
85 34 0 116 55 149 100 52 71 70 125 70 210 0 55 -6 87 -22 122 -61 133 -240
226 -380 198z m163 -138 c52 -26 108 -89 124 -137 28 -86 -14 -201 -92 -252
-55 -37 -146 -43 -209 -16 -99 44 -148 115 -149 213 0 91 66 184 148 211 42
13 134 3 178 -19z"/>
<path d="M8465 7246 c-110 -27 -198 -94 -242 -184 -35 -71 -38 -170 -8 -251
25 -69 101 -153 158 -176 l42 -17 -42 -19 c-24 -10 -43 -22 -43 -26 0 -4 8
-27 18 -51 11 -29 22 -41 32 -39 22 6 804 349 813 357 4 3 -2 29 -14 57 l-21
51 -158 -69 c-88 -38 -161 -69 -164 -69 -2 0 3 21 11 48 35 112 -25 268 -131
342 -43 29 -140 61 -181 59 -11 0 -42 -6 -70 -13z m199 -143 c85 -59 121 -194
76 -282 -42 -83 -146 -137 -246 -129 -74 6 -130 46 -166 117 -36 71 -37 129
-2 200 60 120 232 168 338 94z"/>
<path d="M1435 6803 c-65 -24 -117 -64 -154 -120 -123 -185 -70 -414 117 -504
195 -95 407 3 468 215 61 216 -81 413 -306 423 -54 3 -89 -1 -125 -14z m163
-106 c109 -29 182 -116 182 -217 0 -65 -43 -147 -97 -184 -104 -72 -274 -31
-339 81 -57 96 -16 250 79 300 64 33 105 38 175 20z"/>
<path d="M8915 6089 c-231 -20 -421 -37 -423 -38 -4 -1 5 -124 24 -308 19
-194 56 -286 149 -372 166 -153 442 -140 598 29 104 112 124 209 101 495 -8
110 -19 207 -22 215 -6 14 -56 11 -427 -21z m339 -120 c3 -17 9 -92 12 -167 8
-160 -5 -223 -59 -294 -87 -115 -280 -158 -409 -92 -69 35 -136 118 -159 196
-12 41 -41 319 -34 326 3 3 144 18 313 33 169 14 312 27 318 28 6 0 14 -13 18
-30z"/>
<path d="M846 6039 c-4 -28 -5 -54 -2 -57 3 -2 193 -33 423 -68 230 -35 430
-65 445 -68 26 -5 27 -3 34 50 3 30 5 57 3 59 -4 4 -862 135 -883 135 -9 0
-16 -19 -20 -51z"/>
<path d="M1263 5721 c-131 -45 -204 -150 -206 -296 -1 -92 23 -162 77 -222
156 -174 446 -135 547 73 48 100 44 253 -10 348 -39 70 -51 75 -94 42 l-36
-28 29 -39 c36 -50 54 -125 45 -187 -14 -97 -86 -183 -165 -199 l-30 -5 0 266
0 266 -52 0 c-29 -1 -76 -9 -105 -19z m77 -301 c0 -161 -3 -210 -12 -210 -7 0
-36 11 -65 24 -77 36 -108 88 -108 180 0 95 23 140 95 184 94 56 90 63 90
-178z"/>
<path d="M8716 5154 c-121 -39 -197 -129 -226 -269 -20 -96 1 -217 47 -267 15
-17 18 -17 52 4 20 12 37 22 39 24 2 1 -7 21 -19 44 -74 141 4 326 149 358 23
6 44 7 47 2 2 -4 -12 -120 -32 -259 -32 -216 -35 -254 -22 -262 26 -17 136
-10 196 12 208 77 269 364 111 526 -82 83 -233 122 -342 87z m246 -143 c126
-80 116 -289 -17 -359 -36 -18 -104 -32 -110 -22 -2 4 9 96 25 205 17 108 30
199 30 201 0 12 31 1 72 -25z"/>
<path d="M1075 4943 c4 -27 10 -51 13 -54 4 -3 129 -34 277 -69 149 -35 271
-64 273 -65 2 -2 -106 -74 -466 -311 -8 -5 11 -114 20 -114 5 0 138 87 295
192 l285 193 -7 55 c-4 30 -10 58 -13 61 -8 8 -648 159 -671 159 -10 0 -12
-11 -6 -47z"/>
<path d="M8462 4499 c-85 -88 -152 -268 -136 -363 17 -102 78 -160 169 -161
74 0 111 32 186 161 88 150 133 181 184 129 51 -50 24 -188 -55 -277 l-39 -45
34 -33 c19 -18 40 -30 48 -27 23 9 88 116 113 186 44 123 25 250 -43 299 -41
29 -106 42 -149 31 -50 -14 -95 -64 -159 -178 -72 -129 -107 -154 -162 -116
-63 44 -20 211 85 327 l35 39 -35 36 -35 35 -41 -43z"/>
<path d="M1723 4347 l-20 -42 39 -25 c106 -67 150 -245 85 -341 -25 -36 -74
-76 -83 -67 -3 4 -46 111 -95 240 -50 128 -93 236 -97 240 -11 11 -102 -35
-149 -76 -23 -20 -54 -62 -70 -94 -24 -48 -28 -69 -27 -137 0 -66 5 -90 27
-135 37 -77 76 -121 138 -155 49 -27 62 -30 149 -30 81 0 103 4 150 26 74 34
120 76 156 141 27 49 29 61 29 153 0 88 -3 107 -27 157 -36 78 -71 122 -126
158 -25 16 -48 30 -52 30 -3 0 -15 -19 -27 -43z m-128 -322 l74 -190 -29 -6
c-44 -9 -105 5 -151 35 -75 50 -112 181 -73 259 22 43 75 98 92 95 8 -2 47
-88 87 -193z"/>
<path d="M8192 3905 c-12 -25 -22 -48 -22 -51 0 -3 37 -22 83 -43 45 -21 175
-84 290 -139 l207 -101 26 50 c14 28 24 52 22 54 -7 7 -568 275 -576 275 -4 0
-18 -20 -30 -45z"/>
<path d="M7917 3778 c-127 -69 -247 -240 -255 -364 -9 -141 25 -181 351 -406
141 -98 261 -178 266 -178 6 0 23 18 37 40 26 40 27 41 8 55 -62 45 -61 42
-23 50 81 17 181 104 222 193 29 63 31 209 4 263 -32 65 -85 117 -154 151 -57
28 -77 32 -137 32 -123 -1 -229 -71 -288 -192 -27 -55 -33 -78 -33 -134 0 -37
-2 -68 -3 -68 -2 0 -24 15 -49 32 -93 67 -117 161 -67 260 34 66 116 148 179
178 28 13 52 24 53 26 6 4 -37 94 -45 94 -4 0 -34 -15 -66 -32z m398 -297 c81
-37 128 -106 128 -187 0 -125 -111 -243 -229 -244 -58 0 -142 45 -178 97 -56
82 -43 191 33 276 66 74 163 96 246 58z"/>
<path d="M1830 3656 c-73 -21 -131 -55 -196 -118 -85 -81 -117 -153 -122 -271
-6 -132 16 -191 147 -385 58 -87 115 -171 127 -187 l21 -28 224 154 c123 84
280 191 349 238 69 46 127 86 129 88 3 2 -44 76 -105 166 -118 175 -203 271
-274 307 -95 49 -206 62 -300 36z m248 -135 c67 -34 116 -85 195 -200 40 -58
76 -111 80 -118 9 -14 -518 -377 -533 -368 -23 14 -169 247 -185 295 -23 68
-17 178 13 235 38 73 116 140 199 171 56 21 177 13 231 -15z"/>
<path d="M8912 3587 c-65 -69 22 -177 92 -115 39 35 45 80 13 112 -33 33 -76
34 -105 3z"/>
<path d="M7611 3046 l-34 -35 44 -49 c24 -28 83 -93 131 -146 99 -110 124
-161 114 -230 -13 -87 -112 -176 -195 -176 -56 0 -106 38 -242 187 -72 79
-137 143 -143 143 -7 0 -27 -16 -46 -35 l-34 -35 30 -32 c295 -320 311 -334
402 -345 79 -9 142 18 216 91 65 63 96 125 96 190 l0 30 35 -34 35 -34 35 34
c19 19 35 38 35 42 0 14 -422 468 -435 468 -6 0 -26 -15 -44 -34z"/>
<path d="M2775 2751 c-155 -41 -279 -213 -261 -364 18 -159 162 -292 314 -290
45 0 60 -3 54 -11 -39 -50 -190 -253 -195 -263 -7 -11 70 -76 84 -71 6 3 341
445 508 671 l40 54 -44 31 -45 31 -26 -34 c-32 -43 -44 -44 -44 -5 0 75 -92
190 -185 231 -49 22 -154 32 -200 20z m147 -113 c48 -14 120 -76 142 -122 25
-52 21 -133 -10 -194 -32 -65 -83 -108 -151 -128 -48 -14 -58 -14 -109 1 -78
22 -147 92 -162 161 -25 116 46 237 164 279 49 18 76 18 126 3z"/>
<path d="M6957 2500 c-100 -25 -218 -115 -257 -194 -33 -69 -29 -76 45 -100
17 -5 23 0 34 30 17 48 64 99 120 132 39 23 57 27 123 27 69 0 80 -3 119 -30
23 -16 44 -34 45 -40 2 -5 -98 -70 -221 -144 -124 -73 -225 -137 -225 -141 0
-12 55 -83 91 -117 144 -136 392 -86 494 98 27 49 30 63 30 144 0 78 -4 97
-28 147 -35 72 -98 137 -160 166 -55 26 -153 36 -210 22z m293 -301 c38 -140
-115 -289 -255 -250 -44 12 -115 58 -115 75 0 12 325 213 347 215 7 1 17 -18
23 -40z"/>
<path d="M3418 2338 c-31 -11 -33 -16 -17 -68 11 -37 13 -38 41 -28 65 23 175
-7 246 -66 55 -47 92 -169 64 -214 -6 -9 -68 15 -245 98 -130 60 -239 110
-241 110 -3 0 -14 -26 -26 -57 -18 -48 -21 -74 -18 -144 5 -99 28 -150 98
-213 68 -61 121 -80 225 -81 81 0 95 3 143 29 177 99 236 334 121 490 -84 115
-277 186 -391 144z m132 -388 c85 -40 157 -74 159 -76 11 -10 -39 -60 -79 -81
-53 -28 -129 -30 -185 -4 -43 19 -100 78 -116 118 -10 27 -12 103 -3 127 7 18
-5 23 224 -84z"/>
<path d="M6435 2243 c-22 -9 -42 -17 -43 -19 -2 -1 26 -80 63 -176 37 -95 70
-190 73 -211 10 -76 -44 -159 -125 -193 l-32 -14 16 -45 c8 -25 19 -48 24 -51
15 -9 92 41 128 81 18 20 34 50 38 66 5 26 23 42 23 20 0 -5 7 -25 15 -44 l15
-36 45 16 c25 8 47 18 50 22 2 5 -24 79 -59 167 -34 87 -86 221 -116 297 -29
75 -58 137 -64 136 -6 0 -29 -7 -51 -16z"/>
<path d="M4148 1923 c-42 -81 -136 -260 -207 -398 -130 -250 -130 -250 -105
-257 14 -4 39 -8 56 -10 30 -3 30 -2 201 325 139 266 173 324 178 305 4 -13
33 -177 65 -365 l58 -343 30 -5 c85 -15 64 -40 251 307 93 175 173 320 176
323 3 3 32 -155 65 -351 32 -195 61 -359 64 -363 3 -5 30 -11 61 -15 l56 -7
-74 443 c-41 243 -79 446 -85 449 -6 4 -33 10 -61 14 -39 5 -54 3 -62 -8 -5
-8 -82 -150 -169 -315 -88 -166 -163 -302 -167 -302 -4 0 -10 21 -14 48 -11
82 -112 653 -116 657 -2 2 -31 7 -64 10 l-60 7 -77 -149z"/>
<path d="M5700 2013 c-17 -21 -20 -36 -16 -63 16 -100 156 -90 156 11 0 75
-95 109 -140 52z"/>
</g>
</svg>
